<svg width="336" height="400" xmlns="http://www.w3.org/2000/svg" xmlns:xlink="http://www.w3.org/1999/xlink"><defs><rect id="path-1" x="0" y="0" width="300" height="190.909" rx="9.917"/><rect id="path-3" x="0" y="0" width="300" height="190.909" rx="9.917"/><filter x="-6.3%" y="-8.9%" width="112.7%" height="119.9%" filterUnits="objectBoundingBox" id="filter-2"><feOffset dy="2" in="SourceAlpha" result="shadowOffsetOuter1"/><feGaussianBlur stdDeviation="6" in="shadowOffsetOuter1" result="shadowBlurOuter1"/><feColorMatrix values="0 0 0 0 0 0 0 0 0 0 0 0 0 0 0 0 0 0 0.1 0" in="shadowBlurOuter1"/></filter></defs><g id="twoslide" stroke="none" stroke-width="1" fill="none" fill-rule="evenodd"><path d="M83.487 183.454c23.274 0 42.09-6.761 56.451-20.283 14.36-13.521 21.54-31.413 21.54-53.674V91.688c0-23.25-7.18-41.678-21.54-55.282S106.596 16 82.992 16C59.718 16 40.9 22.884 26.54 36.653 12.18 50.423 5 68.355 5 90.451v17.562c0 23.086 7.221 41.43 21.664 55.035 14.443 13.604 33.384 20.406 56.823 20.406zm13.382 169.459L271.816 72.81l-34.694-18.707L62.175 334.207l34.694 18.706zM82.106 141.34c-9.248 0-16.72-3.015-22.419-9.044-5.697-6.029-8.546-13.998-8.546-23.909V90.3c0-10.736 2.808-19.119 8.423-25.148S72.528 56.11 81.61 56.11c9.578 0 17.093 3.055 22.542 9.167 5.45 6.112 8.175 14.123 8.175 24.033v18.335c0 10.24-2.725 18.417-8.175 24.528-5.45 6.112-12.799 9.168-22.047 9.168zM254.132 385c23.566 0 42.436-6.802 56.609-20.406C324.914 350.99 332 333.14 332 311.044v-17.81c0-23.58-7.21-42.09-21.63-55.529-14.42-13.44-33.331-20.159-56.733-20.159-23.072 0-41.86 6.802-56.362 20.406-14.502 13.604-21.754 31.537-21.754 53.798v18.304c0 22.59 7.17 40.73 21.507 54.416C211.366 378.157 230.4 385 254.132 385zm1.627-40.109c-8.882 0-16.284-3.22-22.205-9.663-5.922-6.441-8.882-14.205-8.882-23.29v-18.582c0-10.406 2.796-18.623 8.388-24.652 5.593-6.03 12.994-9.044 22.205-9.044 9.211 0 16.613 3.015 22.205 9.044 5.593 6.029 8.389 13.998 8.389 23.909v18.83c0 22.299-10.033 33.448-30.1 33.448z" id="%" fill-opacity=".3" fill="#FFF" fill-rule="nonzero"/><g id="Group-75" transform="translate(18 105)"><g id="Group-5-Copy"><g id="Rectangle-4"><use fill="#000" filter="url(#filter-2)" xlink:href="#path-1"/><use fill="#FFF" xlink:href="#path-1"/></g><g id="Path_3"><mask id="mask-4" fill="#fff"><use xlink:href="#path-3"/></mask><path d="M138.397 74.809c-386.002 21.937-112.465 234.423 73.72 77.108 37.167-36.785 65.768-81.072 83.825-129.797 27.699-71.331 51.18-160.945 46.951-302.285-4.932 109.7-17.846 203.93-75.842 306.013-17.528 35.333-43.27 66.11-75.14 89.836-119.279 77.602-182.658-4.617-53.514-40.875z" fill="#F2F2F2" mask="url(#mask-4)"/></g></g><g id="Group-72" transform="translate(33 29)"><path d="M81.9 131.397V103.89h13.176V80.743H81.901V1.78h-30v.268L0 85.55l1.78 18.338H51.9v27.508h30zm-30-50.654H28.576l21.455-36.855 1.87-3.027v39.882z" id="4" fill="#FFF" fill-rule="nonzero"/><path d="M143.584 133.178c14.303 0 25.386-4.748 33.25-14.244 7.863-9.496 11.795-22.997 11.795-40.505V54.838c0-17.449-3.946-30.95-11.84-40.505C168.896 4.778 157.77 0 143.406 0c-14.362 0-25.475 4.748-33.34 14.244-7.863 9.495-11.795 22.997-11.795 40.505v23.68c0 17.389 3.947 30.86 11.84 40.416 7.894 9.555 19.051 14.333 33.473 14.333zm0-23.146c-5.282 0-9.14-2.24-11.573-6.721s-3.65-11.558-3.65-21.232V48.962c.178-8.664 1.44-15.133 3.784-19.407 2.344-4.273 6.098-6.41 11.26-6.41 5.283 0 9.14 2.3 11.574 6.9 2.433 4.6 3.65 11.558 3.65 20.876v32.048c-.06 9.318-1.306 16.158-3.74 20.52-2.433 4.362-6.201 6.543-11.305 6.543z" id="0" fill="#FFF" fill-rule="nonzero"/><path d="M80.403 125.397v-24.612h11.789v-20.71H80.403V9.425H53.561v.238L7.124 84.377l1.593 16.408H53.56v24.612h26.842zM53.561 80.075H32.69L51.889 47.1l1.673-2.709v35.684zm90.643 46.915c12.798 0 22.714-4.248 29.75-12.744 7.036-8.496 10.554-20.577 10.554-36.242V56.897c0-15.612-3.531-27.693-10.594-36.242-7.062-8.55-17.019-12.824-29.87-12.824-12.85 0-22.793 4.248-29.829 12.745-7.036 8.496-10.553 20.576-10.553 36.241v21.187c0 15.56 3.53 27.613 10.593 36.162 7.063 8.55 17.046 12.824 29.95 12.824zm0-20.71c-4.726 0-8.177-2.004-10.354-6.013-2.178-4.01-3.266-10.341-3.266-18.997V51.64c.16-7.753 1.288-13.541 3.385-17.364 2.098-3.824 5.456-5.735 10.076-5.735 4.726 0 8.178 2.057 10.355 6.173 2.177 4.115 3.265 10.341 3.265 18.678v28.675c-.053 8.337-1.168 14.456-3.345 18.36-2.177 3.902-5.55 5.854-10.116 5.854z" id="40" fill="#E30613" fill-rule="nonzero"/><g id="Group-77-Copy" transform="translate(145.824 26.858)"><path id="Path" fill="#FFF" transform="rotate(-1 44.37 48.73)" d="M25.83 81.985l47.588-62.193-10.508-4.318-47.59 62.194z"/><g id="Group" fill-rule="nonzero"><path d="M24.942 51.823c7.55 0 13.542-2.093 17.98-6.277 4.438-4.185 6.656-9.722 6.656-16.611v-5.511c0-7.196-2.218-12.899-6.656-17.109C38.484 2.105 32.44 0 24.789 0 17.24 0 11.221 2.118 6.733 6.353 2.244 10.59 0 16.152 0 23.041v5.435c0 7.246 2.283 12.949 6.848 17.108 4.565 4.16 10.596 6.239 18.094 6.239zM63.23 97.27c7.6 0 13.619-2.093 18.056-6.277 4.438-4.185 6.657-9.747 6.657-16.688v-5.358c0-7.4-2.245-13.166-6.733-17.3-4.489-4.133-10.533-6.2-18.133-6.2-7.498 0-13.504 2.092-18.018 6.277-4.514 4.185-6.771 9.747-6.771 16.687v5.512c0 7.246 2.282 12.95 6.847 17.108 4.565 4.16 10.597 6.239 18.095 6.239z" id="%" fill="#FFF"/><path d="M25.733 44.221c5.392 0 9.674-1.494 12.843-4.481 3.17-2.988 4.755-6.941 4.755-11.86v-3.935c0-5.137-1.585-9.209-4.755-12.214-3.17-3.006-7.487-4.51-12.952-4.51-5.392 0-9.692 1.513-12.898 4.537-3.206 3.024-4.81 6.995-4.81 11.914v3.88c0 5.174 1.631 9.246 4.892 12.215 3.26 2.97 7.57 4.454 12.925 4.454zm3.498 37.764l38.857-62.193-8.58-4.318-38.857 62.194 8.58 4.317zm-3.498-47.71c-1.858 0-3.315-.593-4.372-1.777s-1.585-2.723-1.585-4.618v-4.099c0-2.04.528-3.652 1.585-4.836 1.057-1.184 2.478-1.777 4.263-1.777 1.858 0 3.297.61 4.317 1.831 1.02 1.22 1.53 2.778 1.53 4.673v3.28c0 4.881-1.912 7.322-5.738 7.322zm37.82 54.76c5.428 0 9.727-1.493 12.897-4.48 3.17-2.988 4.755-6.96 4.755-11.915v-3.826c0-5.283-1.603-9.4-4.81-12.35-3.206-2.952-7.523-4.428-12.952-4.428-5.356 0-9.646 1.494-12.87 4.482-3.225 2.987-4.837 6.959-4.837 11.914v3.935c0 5.173 1.63 9.245 4.891 12.214 3.261 2.97 7.57 4.455 12.925 4.455zm0-9.946c-1.677 0-3.098-.647-4.264-1.94-1.166-1.294-1.748-2.797-1.748-4.509v-4.481c.072-1.895.637-3.398 1.694-4.51 1.056-1.11 2.46-1.666 4.208-1.666 1.822 0 3.26.592 4.317 1.776 1.057 1.184 1.585 2.742 1.585 4.673l-.054 5.629c-.292 3.352-2.205 5.028-5.739 5.028z" id="%-copy" fill="#333"/></g></g></g></g></g></svg>