<svg width="77" height="77" fill="none" xmlns="http://www.w3.org/2000/svg"><path d="M6.92 75.273h47.555M12.58 13.653l6.828 17.479m41.916-20.159l-11.58 35.543m5.228-35.391h16.205L75.454 1.12M22.282 13.825H1m21.67 30.789a6.27 6.27 0 016.266 6.266 6.27 6.27 0 01-6.265 6.266 6.27 6.27 0 01-6.266-6.266 6.27 6.27 0 016.266-6.266zm3.35 11.581l7.519 8.275m-6.828.475h13.98" stroke="#fff" stroke-width="2" stroke-miterlimit="22.926" stroke-linecap="round" stroke-linejoin="round"/><path d="M22.909 31.434c5.617 0 10.716 2.031 14.476 5.337 2.506 2.204 17.09 14.606 18.062 15.513 2.053 1.88 3.306 4.494 3.306 7.368 0 2.874-1.275 5.466-3.306 7.368-2.052 1.88-4.883 3.046-8.016 3.046-8.966 0-14.151-.086-24.544-.086-5.79 0-11.02-2.161-14.822-5.64-3.78-3.478-6.136-8.296-6.136-13.611 0-5.315 2.355-10.134 6.136-13.612 3.825-3.522 9.053-5.683 14.844-5.683z" stroke="#fff" stroke-width="2" stroke-miterlimit="22.926" stroke-linecap="round" stroke-linejoin="round"/></svg>