<svg width="70" height="81" fill="none" xmlns="http://www.w3.org/2000/svg"><path d="M44.29 66.933c-.28 0-.54-.022-.799-.022-18.646-1.771-26.316 6.806-15.276 11.819 3.004 1.21 26.425.432 31.07.432 2.809 0 5.142-2.441 5.142-5.423 0-6.698-8.62-11.56-13.309-15.664-2.614-2.29-5.682-4.646-6.223-6.958-.54-2.311 1.491-5.228 1.491-9.873 3.565 9.636 4.97 8.275 13.46 16.83 1.924 1.945 5.057 1.945 7.001.022 1.945-1.923 1.945-5.056.022-7l-7.54-7.562c-6.958-6.979-6.202-18.128-13.159-18.02H23.138c-6.957-.108-6.2 11.041-13.158 18.02l-7.54 7.562c-1.923 1.944-1.923 5.077.021 7 1.945 1.923 5.078 1.923 7-.021 4.797-4.84 12.618-9.874 13.461-16.832 0 4.646 2.01 7.541 1.49 9.874-.54 2.312-3.629 4.667-6.222 6.958C13.502 62.18 4.881 67.02 4.881 73.739c0 2.982 2.312 5.423 5.142 5.423h15.362m9.269-78.041c-6.33 0-11.473 5.142-11.473 11.473 0 6.33 5.142 11.473 11.473 11.473 6.33 0 11.473-5.143 11.473-11.473 0-6.33-5.142-11.473-11.473-11.473z" stroke="#fff" stroke-width="2" stroke-miterlimit="22.926" stroke-linecap="round" stroke-linejoin="round"/></svg>