<svg width="76" height="76" fill="none" xmlns="http://www.w3.org/2000/svg"><path d="M2.231 37.052l6.439-6.439 36.341 36.363-6.438 6.439L2.23 37.052zm-.993 12.553l6.438-6.438L32.48 67.97l-6.44 6.44L1.238 49.605z" stroke="#fff" stroke-width="2" stroke-miterlimit="22.926" stroke-linecap="round" stroke-linejoin="round"/><path d="M1 62.245l6.439-6.439L19.84 68.208l-6.438 6.439L1 62.245zm29.039-10.22L23.6 45.586l21.65-21.649 6.438 6.439-21.65 21.649zM36.93 2.353L30.493 8.79l36.363 36.342 6.439-6.439L36.93 2.353zm12.554-.994l-6.439 6.438L67.85 32.601l6.439-6.438L49.484 1.359z" stroke="#fff" stroke-width="2" stroke-miterlimit="22.926" stroke-linecap="round" stroke-linejoin="round"/><path d="M62.124 1.121L55.685 7.56l12.402 12.402 6.438-6.439L62.124 1.121z" stroke="#fff" stroke-width="2" stroke-miterlimit="22.926" stroke-linecap="round" stroke-linejoin="round"/></svg>